{"title":"Manmohan Waris and Kamal Heer Rare Video","uid":7443667,"size":16459660,"categoryP":"video","categoryS":"other","magnet":"?xt=urn:btih:e7fd9481d7aabe0f50fc01c27c8ca057942365c2&amp;dn=Manmohan+Waris+and+Kamal+Heer+Rare+Video&amp;tr=udp%3A%2F%2Ftracker.openbittorrent.com%3A80&amp;tr=udp%3A%2F%2Fopen.demonii.com%3A1337&amp;tr=udp%3A%2F%2Ftracker.coppersurfer.tk%3A6969&amp;tr=udp%3A%2F%2Fexodus.desync.com%3A6969","seeders":0,"leechers":0,"uploader":"djsunny1986","files":1,"time":1342295714,"description":"video.FLV\nFormat                                   : Flash Video\nFile size                                : 15.7 MiB\nDuration                                 : 2mn 27s\nOverall bit rate                         : 890 Kbps\n\n\nVideo\nFormat                                   : AVC\nFormat/Info                              : Advanced Video Codec\nFormat profile                           : &lt;a class=&quot;__cf_email__&quot; href=&quot;/cdn-cgi/l/email-protection&quot; data-cfemail=&quot;d09db1b9be909ce3fee0&quot;&gt;[email&amp;#160;protected]&lt;/a&gt;&lt;script cf-hash='f9e31' type=&quot;text/javascript&quot;&gt;\n/* &lt;![CDATA[ */!function(){try{var t=&quot;currentScript&quot;in document?document.currentScript:function(){for(var t=document.getElementsByTagName(&quot;script&quot;),e=t.length;e--;)if(t[e].getAttribute(&quot;cf-hash&quot;))return t[e]}();if(t&amp;&amp;t.previousSibling){var e,r,n,i,c=t.previousSibling,a=c.getAttribute(&quot;data-cfemail&quot;);if(a){for(e=&quot;&quot;,r=parseInt(a.substr(0,2),16),n=2;a.length-n;n+=2)i=parseInt(a.substr(n,2),16)^r,e+=String.fromCharCode(i);e=document.createTextNode(e),c.parentNode.replaceChild(e,c)}}}catch(u){}}();/* ]]&gt; */&lt;/script&gt;\nFormat settings, CABAC                   : Yes\nFormat settings, ReFrames                : 3 frames\nFormat settings, GOP                     : M=1, N=30\nCodec ID                                 : 7\nDuration                                 : 2mn 27s\nBit rate                                 : 784 Kbps\nWidth                                    : 640 pixels\nHeight                                   : 360 pixels\nDisplay aspect ratio                     : 16:9\nFrame rate mode                          : Constant\nFrame rate                               : 29.970 fps\nColor space                              : YUV\nChroma subsampling                       : 4:2:0\nBit depth                                : 8 bits\nScan type                                : Progressive\nBits/(Pixel*Frame)                       : 0.114\nStream size                              : 13.8 MiB (88%)\n\nAudio\nFormat                                   : AAC\nFormat/Info                              : Advanced Audio Codec\nFormat profile                           : LC\nCodec ID                                 : 10\nDuration                                 : 2mn 27s\nBit rate                                 : 96.7 Kbps\nChannel(s)                               : 2 channels\nChannel positions                        : Front: L R\nSampling rate                            : 44.1 KHz\nCompression mode                         : Lossy\nStream size                              : 1.71 MiB (11%)\n\n\nScreens: &lt;a href=&quot;\nhttp://i.minus.com/iwyzRI75RQ1JS.jpg&quot; rel=&quot;nofollow&quot; target=&quot;_NEW&quot;&gt;\nhttp://i.minus.com/iwyzRI75RQ1JS.jpg&lt;/a&gt;","torrent":{"xt":"urn:btih:e7fd9481d7aabe0f50fc01c27c8ca057942365c2","amp;dn":"Manmohan+Waris+and+Kamal+Heer+Rare+Video","amp;tr":["udp%3A%2F%2Ftracker.openbittorrent.com%3A80","udp%3A%2F%2Fopen.demonii.com%3A1337","udp%3A%2F%2Ftracker.coppersurfer.tk%3A6969","udp%3A%2F%2Fexodus.desync.com%3A6969"],"infoHash":"e7fd9481d7aabe0f50fc01c27c8ca057942365c2","infoHashBuffer":{"type":"Buffer","data":[231,253,148,129,215,170,190,15,80,252,1,194,124,140,160,87,148,35,101,194]},"announce":[],"urlList":[]}}